<?xml version="1.0" encoding="UTF-8"?>
<svg width="17px" height="16px" viewBox="0 0 17 16" version="1.1" xmlns="http://www.w3.org/2000/svg" xmlns:xlink="http://www.w3.org/1999/xlink">
    <title>添加</title>
    <g id="页面-1" stroke="none" stroke-width="1" fill="none" fill-rule="evenodd">
        <g id="画板备份-20" transform="translate(-240, -219)" fill="#8D97A3" fill-rule="nonzero">
            <g id="编组-29" transform="translate(72, 114)">
                <g id="添加" transform="translate(168.625, 105)">
                    <rect id="矩形" opacity="0" x="0" y="0" width="16" height="16"></rect>
                    <path d="M7.99992641,2 C4.68630934,2 2,4.68630934 2,7.99993979 C2,11.313704 4.68630934,14 7.99992641,14 C11.313704,14 14,11.313704 14,7.99993979 C14,4.68630934 11.313704,2 7.99992641,2 L7.99992641,2 Z M11.5954319,8.68246912 L8.66259897,8.68246912 L8.66259897,11.615302 L7.29767412,11.615302 L7.29767412,8.68246912 L4.36484122,8.68246912 L4.36484122,7.31754426 L7.29767412,7.31754426 L7.29767412,4.38471136 L8.66259897,4.38471136 L8.66259897,7.31754426 L11.5954319,7.31754426 L11.5954319,8.68246912 L11.5954319,8.68246912 Z" id="形状"></path>
                </g>
            </g>
        </g>
    </g>
</svg>