<?xml version="1.0" encoding="UTF-8"?>
<svg width="12px" height="12px" viewBox="0 0 12 12" version="1.1" xmlns="http://www.w3.org/2000/svg" xmlns:xlink="http://www.w3.org/1999/xlink">
    <title>关闭</title>
    <g id="页面-1" stroke="none" stroke-width="1" fill="none" fill-rule="evenodd">
        <g id="新建" transform="translate(-429, -427)" fill="#90A0AF" fill-rule="nonzero">
            <g id="编组-49" transform="translate(347, 179)">
                <g id="编组-48" transform="translate(21, 28)">
                    <g id="编组-38" transform="translate(3, 184)">
                        <g id="编组-29备份-11" transform="translate(0, 28)">
                            <g id="关闭" transform="translate(58, 8)">
                                <path d="M6,0 C2.68643655,0 0,2.68643655 0,6 C0,9.31356345 2.68643655,12 6,12 C9.31356345,12 12,9.31356345 12,6 C12,2.68643655 9.31356345,0 6,0 Z M9.08551977,8.17613074 C9.33580932,8.42642029 9.33580932,8.83522615 9.08551977,9.08551706 C8.83523022,9.33580661 8.42642437,9.33580661 8.17613346,9.08551706 L6.00000272,6.90938632 L3.82387198,9.08551706 C3.57358243,9.33580661 3.16477657,9.33580661 2.91448566,9.08551706 C2.66419611,8.83522751 2.66419611,8.42642165 2.91448566,8.17613074 L5.0906164,6 L2.91448566,3.82386926 C2.66419611,3.57357971 2.66419611,3.16477385 2.91448566,2.91448294 C3.16477521,2.66419339 3.57358107,2.66419339 3.82387198,2.91448294 L6.00000272,5.09061368 L8.17613346,2.91448294 C8.42642301,2.66419339 8.83522887,2.66419339 9.08551977,2.91448294 C9.33580932,3.16477249 9.33580932,3.57357835 9.08551977,3.82386926 L6.90938903,6 L9.08551977,8.17613074 L9.08551977,8.17613074 Z" id="形状"></path>
                            </g>
                        </g>
                    </g>
                </g>
            </g>
        </g>
    </g>
</svg>