<?xml version="1.0" encoding="UTF-8"?>
<svg width="16px" height="16px" viewBox="0 0 16 16" version="1.1" xmlns="http://www.w3.org/2000/svg" xmlns:xlink="http://www.w3.org/1999/xlink">
    <title>icon / close</title>
    <g id="移动" stroke="none" stroke-width="1" fill="none" fill-rule="evenodd">
        <g id="详细创建添加步骤" transform="translate(-753.000000, -48.000000)">
            <g id="弹窗" transform="translate(175.000000, 32.000000)">
                <g id="icon-/-close" transform="translate(578.000000, 16.000000)">
                    <path d="M0,0 L16,0 L16,16 L0,16 Z" id="icon-/-close-(Background)"></path>
                    <g id="icon_close">
                        <path d="M0,0 L16,0 L16,16 L0,16 Z" id="Rectangle"></path>
                        <path d="M12.9631015,3.09729879 C13.0928332,2.96756707 13.3031698,2.96756707 13.4329015,3.09729879 L13.9027015,3.56709892 C14.0324332,3.69683064 14.0324332,3.90716727 13.9027015,4.03689899 L9.43960061,8.5 L13.9027015,12.9631015 C14.0324332,13.0928332 14.0324332,13.3031698 13.9027015,13.4329015 L13.4329015,13.9027015 C13.3031698,14.0324332 13.0928332,14.0324332 12.9631015,13.9027015 L8.5,9.43960061 L4.03689899,13.9027015 C3.90716727,14.0324332 3.69683064,14.0324332 3.56709892,13.9027015 L3.09729879,13.4329015 C2.96756707,13.3031698 2.96756707,13.0928332 3.09729879,12.9631015 L7.56040002,8.5 L3.09729879,4.03689899 C2.96756707,3.90716727 2.96756707,3.69683064 3.09729879,3.56709892 L3.56709892,3.09729879 C3.69683064,2.96756707 3.90716727,2.96756707 4.03689899,3.09729879 L8.5,7.56040002 L8.5,7.56040002 L12.9631015,3.09729879 Z" id="路径" fill="#2B2F36" fill-rule="nonzero"></path>
                    </g>
                </g>
            </g>
        </g>
    </g>
</svg>