<?xml version="1.0" encoding="UTF-8"?>
<svg width="14px" height="14px" viewBox="0 0 14 14" version="1.1" xmlns="http://www.w3.org/2000/svg" xmlns:xlink="http://www.w3.org/1999/xlink">
    <title>不可见</title>
    <g id="页面-1" stroke="none" stroke-width="1" fill="none" fill-rule="evenodd">
        <g id="画板备份-20" transform="translate(-676, -282)" fill-rule="nonzero">
            <g id="编组-4" transform="translate(393.999, 272)">
                <g id="不可见" transform="translate(282, 10)">
                    <rect id="矩形" fill="#000000" opacity="0" x="0" y="0" width="14" height="14"></rect>
                    <path d="M7,4.08333789 C8.61,4.08333789 9.91666211,5.39 9.91666211,7 C9.91666211,7.37916211 9.84083789,7.735 9.70666211,8.0675 L11.41,9.77083789 C12.2908379,9.03583789 12.985,8.085 13.4108379,7 C12.4016621,4.43916211 9.91083789,2.625 6.99416211,2.625 C6.1775,2.625 5.39583789,2.77083789 4.6725,3.03333789 L5.9325,4.29333789 C6.265,4.15916211 6.62083789,4.08333789 7,4.08333789 L7,4.08333789 Z M1.16666211,2.49083789 L2.49666211,3.82083789 L2.765,4.08916211 C1.78999626,4.8463318 1.03647925,5.8516964 0.583337891,7 C1.5925,9.56083789 4.08333789,11.375 7,11.375 C7.90416211,11.375 8.7675,11.2 9.555,10.885 L9.8,11.13 L11.5091621,12.8333379 L12.25,12.0925 L1.9075,1.75 L1.16666211,2.49083789 Z M4.3925,5.71666211 L5.29666211,6.62083789 C5.2675,6.74333789 5.25,6.87166211 5.25,7 C5.25,7.96833789 6.03166211,8.75 7,8.75 C7.12833789,8.75 7.25666211,8.7325 7.37916211,8.70333789 L8.28333789,9.6075 C7.8925,9.8 7.46083789,9.91666211 7,9.91666211 C5.39,9.91666211 4.08333789,8.61 4.08333789,7 C4.08333789,6.53916211 4.2,6.1075 4.3925,5.71666211 L4.3925,5.71666211 Z M6.90666211,5.26166211 L8.74416211,7.09916211 L8.75583789,7.00583789 C8.75583789,6.0375 7.97416211,5.25583789 7.00583789,5.25583789 L6.90666211,5.26166211 L6.90666211,5.26166211 Z" id="形状" fill="#186DF5"></path>
                </g>
            </g>
        </g>
    </g>
</svg>