<?xml version="1.0" encoding="UTF-8"?>
<svg width="20px" height="21px" viewBox="0 0 20 21" version="1.1" xmlns="http://www.w3.org/2000/svg" xmlns:xlink="http://www.w3.org/1999/xlink">
    <title>编组 34</title>
    <g id="页面-1" stroke="none" stroke-width="1" fill="none" fill-rule="evenodd">
        <g id="新建" transform="translate(-601, -342)">
            <g id="编组-49" transform="translate(347, 179)">
                <g id="编组-48" transform="translate(21, 28)">
                    <g id="编组-17" transform="translate(3, 102)">
                        <g id="编组-35" transform="translate(230, 33)">
                            <rect id="矩形" stroke="#979797" fill="#D8D8D8" opacity="0" x="0.5" y="0.5" width="19" height="20"></rect>
                            <g id="编组" transform="translate(2, 2)" fill="#5A6875" fill-rule="nonzero">
                                <path d="M7.99997111,9.07021597 C9.57544165,9.07021597 10.8570434,7.79972606 10.8570434,6.23812103 C10.8570434,4.67651601 9.57544165,3.40618995 7.99997111,3.40618995 C6.42450057,3.40618995 5.14277541,4.67659793 5.14277541,6.23820296 C5.14277541,7.79980798 6.42450057,9.07021597 7.99997111,9.07021597 Z M7.99997111,4.53902792 C8.94637207,4.54007244 9.71325625,5.3003224 9.71430497,6.23822344 C9.71430497,7.1767389 8.94668052,7.93752136 7.99997111,7.93752136 C7.05315888,7.93752136 6.28574006,7.1767389 6.28574006,6.23822344 C6.28574006,5.2997899 7.05315888,4.53902792 7.99997111,4.53902792 Z M15.874774,16.0797329 L13.5890503,13.2477198 C13.4803245,13.1132161 13.3162432,13.0350514 13.1428699,13.0351692 L12,13.0351692 C11.6843629,13.0351692 11.428536,13.2887226 11.428536,13.6015269 C11.428536,13.9143313 11.6843629,14.1678844 12,14.1678844 L12.8681866,14.1678844 L14.2397113,15.8671824 L1.76023095,15.8671824 L3.13175562,14.1678844 L3.99993415,14.1678844 C4.31545597,14.1678844 4.57130337,13.9142289 4.57130337,13.6015269 C4.57130337,13.288825 4.31545597,13.0351692 3.99993415,13.0351692 L2.85707232,13.0351692 C2.68369903,13.0350514 2.51961771,13.1132161 2.41089189,13.2477198 L0.125085987,16.0797329 C0.0441094144,16.1800545 0,16.3049208 0,16.4336423 C0,16.7464467 0.255826847,16.9999999 0.571472049,16.9999999 L15.4286758,16.9999999 C15.5583447,17.000063 15.6842032,16.9563311 15.7856942,16.8759472 C15.9039117,16.7823976 15.9797886,16.6457527 15.9965099,16.4962942 C16.0132312,16.3468356 15.969416,16.1969067 15.874774,16.0797329 L15.874774,16.0797329 Z M3.56016944,10.6487177 L3.56088915,10.6492297 L7.59600694,14.6488777 C7.70307955,14.755112 7.84846141,14.8147728 8.00007392,14.8147728 C8.15168644,14.8147728 8.29698605,14.7552144 8.40414091,14.6488777 L12.4448313,10.6437818 L12.4492524,10.639276 C14.9040467,8.20364981 14.9020315,4.25674007 12.4448313,1.82353059 C9.98752828,-0.609596968 6.00568976,-0.607589843 3.55089544,1.82803638 C1.09610111,4.2636626 1.09821912,8.21067475 3.55541934,10.6437818 C3.55679708,10.6454613 3.55848326,10.6470383 3.56014888,10.6486972 L3.56016944,10.6487177 Z M4.36336824,2.63369243 C6.37177651,0.642890258 9.62808345,0.642890258 11.636574,2.63369243 C13.6448589,4.62439219 13.6448589,7.8520342 11.636574,9.84285685 L7.99997111,13.4473674 L4.36336824,9.84285685 C2.35498054,7.8520342 2.35498054,4.62439219 4.36336824,2.63369243 Z" id="形状"></path>
                            </g>
                        </g>
                    </g>
                </g>
            </g>
        </g>
    </g>
</svg>